<?xml version="1.0" encoding="utf-8"?>
<svg viewBox="16.226 22.236 391.226 388.822" xmlns="http://www.w3.org/2000/svg">
  <path fill="#454442" opacity="1.000000" stroke="none" d="M 194.436 408.99 C 186.583 407.643 179.142 406.478 171.784 404.92 C 124.075 394.823 84.779 370.78 56.096 331.395 C 37.963 306.495 37.569 278.264 48.351 249.97 C 55.08 232.313 66.381 217.842 81.662 206.593 C 82.553 205.937 83.514 205.375 84.669 204.622 C 85.079 213.261 85.151 221.488 85.909 229.651 C 90.904 283.459 134.955 330.304 188.338 339.055 C 206.189 341.982 223.789 341.458 241.343 337.142 C 242.988 336.737 245.363 336.994 246.687 337.94 C 265.168 351.147 286.088 355.068 308.226 354.345 C 324.41 353.817 339.76 349.786 354.673 342.889 C 355.008 343.007 354.953 342.961 354.953 342.961 C 344.682 352.557 335.16 363.149 323.994 371.556 C 294.889 393.469 261.669 405.239 225.172 408.614 C 222.945 408.99 220.903 408.99 218.157 408.666 C 212.631 408.558 207.809 408.774 202.986 408.99 C 200.286 408.99 197.586 408.99 194.436 408.99 Z" transform="matrix(1, 0, 0, 1, 3.552713678800501e-14, 0)"/>
  <path fill="#6C6B69" opacity="1.000000" stroke="none" d="M 203.452 408.99 C 207.809 408.774 212.631 408.558 217.72 408.666 C 213.297 408.99 208.608 408.99 203.452 408.99 Z" transform="matrix(1, 0, 0, 1, 3.552713678800501e-14, 0)"/>
  <path fill="#454442" opacity="1.000000" stroke="none" d="M 279.072 335.987 C 274.926 334.543 271.166 333.215 267.44 331.794 C 266.052 331.265 264.747 330.52 262.91 329.635 C 264.398 328.738 265.515 327.965 266.715 327.355 C 314.397 303.154 341.165 254.868 335.783 201.627 C 333.022 174.308 321.887 150.451 303.271 130.224 C 300.524 127.24 299.475 124.522 299.76 120.24 C 301.564 93.184 291.415 70.005 274.768 49.531 C 268.046 41.265 259.698 34.323 252.125 26.814 C 253.58 27.047 255.621 27.219 257.581 27.712 C 334.375 47.013 390.383 108.482 402.171 186.734 C 407.499 222.104 403.567 256.602 389.329 289.428 C 377.6 316.468 355.74 331.719 327.382 337.944 C 311.315 341.471 295.287 340.635 279.072 335.987 Z" transform="matrix(1, 0, 0, 1, 3.552713678800501e-14, 0)"/>
  <path fill="#454442" opacity="1.000000" stroke="none" d="M 174.699 96.642 C 132.043 110.555 104.252 138.753 90.705 181.005 C 89.715 184.092 88.334 185.877 85.31 187.298 C 62.604 197.976 48.256 216.518 38.075 238.711 C 32.418 251.043 29.128 264.055 27.66 277.937 C 26.523 274.3 25.261 270.697 24.266 267.021 C -5.428 157.327 65.598 46.247 177.741 26.129 C 224.765 17.693 266.619 48.234 279.799 92.593 C 281.819 99.394 282.773 106.512 284.537 115.012 C 249.907 92.001 213.881 85.45 174.699 96.642 Z" transform="matrix(1, 0, 0, 1, 3.552713678800501e-14, 0)"/>
  <path fill="#FFEC03" opacity="1.000000" stroke="none" d="M 246.903 164.145 C 234.621 147.234 217.785 140.646 198.205 140.76 C 199.736 136.011 202.358 131.267 202.505 126.447 C 202.647 121.79 200.238 117.056 198.969 112.423 C 240.553 106.369 286.577 143.439 284.587 193.607 C 275.065 193.607 265.518 193.607 255.517 193.607 C 255.517 183.106 253.195 173.203 246.903 164.145 Z" transform="matrix(1, 0, 0, 1, 3.552713678800501e-14, 0)"/>
  <path fill="#04447C" opacity="1.000000" stroke="none" d="M 202.398 154.547 C 201.822 151.561 201.362 148.987 200.9 146.397 C 227.877 143.24 252.492 166.815 250.206 193.648 C 244.528 193.648 238.814 193.648 233.098 193.648 C 230.971 174.569 223.068 166.196 204.253 163.459 C 203.695 160.731 203.105 157.844 202.398 154.547 Z" transform="matrix(1, 0, 0, 1, 3.552713678800501e-14, 0)"/>
  <path fill="#424240" opacity="1.000000" stroke="none" d="M 179.546 177.986 C 179.546 183.451 179.546 188.417 179.546 193.69 C 169.976 193.69 160.761 193.69 151.159 193.69 C 152.376 188.15 153.565 182.73 154.723 177.457 C 163.471 176.681 163.424 176.672 165.078 168.052 C 166.672 159.745 168.378 151.461 170.09 142.891 C 173.289 144.189 176.253 145.392 179.546 146.728 C 179.546 156.893 179.546 167.19 179.546 177.986 Z" transform="matrix(1, 0, 0, 1, 3.552713678800501e-14, 0)"/>
  <path fill="#3F3F3C" opacity="1.000000" stroke="none" d="M 185.147 147.63 C 188.15 145.461 191.146 143.73 194.482 141.802 C 196.856 153.801 199.104 165.165 201.41 176.822 C 204.177 176.822 206.796 176.822 209.972 176.822 C 211.172 182.464 212.33 187.902 213.565 193.709 C 204.053 193.709 194.966 193.709 185.139 193.709 C 185.139 178.571 185.139 163.319 185.147 147.63 Z" transform="matrix(1, 0, 0, 1, 3.552713678800501e-14, 0)"/>
  <path fill="#51504F" opacity="1.000000" stroke="none" d="M 158.369 258.968 C 157.757 252.506 157.467 246.216 157.415 239.924 C 157.327 229.45 157.391 218.975 157.391 208.595 C 161.956 206.796 163.815 208.538 165.252 212.604 C 168.61 222.103 172.494 231.415 177.391 240.699 C 177.391 235.406 177.391 230.112 177.391 224.818 C 177.391 219.349 177.391 213.879 177.391 208.191 C 179.426 208.191 181.006 208.191 182.802 208.191 C 182.802 225.101 182.802 241.861 182.802 258.558 C 178.933 259.936 177.124 258.677 175.852 254.853 C 172.185 243.831 168.058 232.962 163.416 222.113 C 163.416 234.21 163.416 246.307 163.416 258.876 C 161.606 258.979 160.202 259.059 158.369 258.968 Z" transform="matrix(1, 0, 0, 1, 3.552713678800501e-14, 0)"/>
  <path fill="#575654" opacity="1.000000" stroke="none" d="M 233.97 258.142 C 229.533 255.318 227.697 251.567 227.697 246.643 C 227.697 235.662 227.484 224.681 227.366 213.7 C 227.346 211.913 227.363 210.124 227.363 208.041 C 229.705 208.041 231.426 208.041 233.61 208.041 C 233.61 216.868 233.61 225.482 233.61 234.096 C 233.61 238.092 233.539 242.09 233.635 246.084 C 233.718 249.589 234.228 252.921 238.861 253.076 C 243.671 253.236 244.804 249.903 244.845 246.176 C 244.985 233.542 244.899 220.906 244.899 208.008 C 246.79 208.008 248.381 208.008 250.61 208.008 C 250.61 216.515 250.61 224.94 250.61 233.364 C 250.61 237.693 250.642 242.023 250.603 246.352 C 250.514 256.359 244.175 260.991 233.97 258.142 Z" transform="matrix(1, 0, 0, 1, 3.552713678800501e-14, 0)"/>
  <path fill="#484745" opacity="1.000000" stroke="none" d="M 183.732 140.012 C 175 139.75 170.086 135.979 168.541 128.696 C 167.262 122.661 170.556 116.056 176.197 113.347 C 182.067 110.528 189.186 112.147 193.341 117.246 C 200.282 125.766 195.609 137.334 183.732 140.012 Z" transform="matrix(1, 0, 0, 1, 3.552713678800501e-14, 0)"/>
  <path fill="#4E4D4B" opacity="1.000000" stroke="none" d="M 126.711 248.775 C 125.913 252.25 125.21 255.316 124.438 258.682 C 122.667 258.682 120.938 258.682 118.645 258.682 C 122.442 241.685 126.192 224.898 129.968 207.994 C 131.925 207.994 133.558 207.994 135.95 207.994 C 139.692 224.659 143.485 241.557 147.354 258.789 C 145.177 258.789 143.57 258.789 141.571 258.789 C 139.959 251.557 138.343 244.312 136.678 236.845 C 134.253 236.845 131.984 236.845 129.261 236.845 C 128.451 240.648 127.628 244.507 126.711 248.775 M 131 227.791 C 132.017 228.745 133.034 229.7 134.051 230.655 C 134.461 230.28 134.871 229.906 135.28 229.532 C 134.696 226.792 134.111 224.053 133.526 221.313 C 133.197 221.332 132.869 221.351 132.54 221.37 C 132.072 223.224 131.605 225.079 131 227.791 Z" transform="matrix(1, 0, 0, 1, 3.552713678800501e-14, 0)"/>
  <path fill="#464543" opacity="1.000000" stroke="none" d="M 283.986 269.991 C 293.086 269.991 301.686 269.991 310.286 269.991 C 310.434 270.535 310.583 271.079 310.732 271.624 C 309.616 272.134 308.516 273.038 307.381 273.084 C 303.057 273.258 298.722 273.155 294.391 273.155 C 236.094 273.155 177.796 273.155 119.498 273.155 C 118.499 273.155 117.446 273.356 116.513 273.107 C 115.137 272.741 113.846 272.055 112.52 271.505 C 113.876 271 115.231 270.056 116.588 270.054 C 172.221 269.98 227.854 269.991 283.986 269.991 Z" transform="matrix(1, 0, 0, 1, 3.552713678800501e-14, 0)"/>
  <path fill="#4E4D4B" opacity="1.000000" stroke="none" d="M 287.514 217.715 C 287.553 219.295 287.561 220.458 287.561 221.621 C 287.559 232.695 284.108 236.151 273.021 236.181 C 271.399 236.185 269.778 236.181 267.683 236.181 C 267.683 243.909 267.683 251.153 267.683 258.725 C 265.657 258.849 264.084 258.946 262.23 259.06 C 262.23 241.931 262.23 225.075 262.23 207.931 C 267.389 207.931 272.352 207.64 277.266 208.008 C 282.87 208.427 286.286 211.768 287.514 217.715 M 271.401 230.445 C 274.924 230.255 279.618 231.569 280.694 226.924 C 281.519 223.361 281.518 218.669 279.799 215.677 C 277.298 211.324 272.203 213.461 267.831 213.319 C 267.831 218.397 267.666 222.885 267.95 227.344 C 268.019 228.424 269.567 229.409 271.401 230.445 Z" transform="matrix(1, 0, 0, 1, 3.552713678800501e-14, 0)"/>
  <path fill="#4E4D4B" opacity="1.000000" stroke="none" d="M 193.795 216.032 C 193.795 213.225 193.795 210.911 193.795 208.285 C 201.274 208.285 208.506 208.285 215.927 208.285 C 215.927 209.943 215.927 211.518 215.927 213.492 C 210.577 213.492 205.461 213.492 199.957 213.492 C 199.957 219.271 199.957 224.666 199.957 230.551 C 203.284 230.705 206.676 230.863 210.298 231.03 C 210.298 232.715 210.298 234.133 210.298 236.034 C 206.75 236.034 203.331 236.034 199.55 236.034 C 199.55 241.873 199.55 247.245 199.55 253.037 C 204.93 253.037 210.195 253.037 215.811 253.037 C 215.811 255.145 215.811 256.845 215.811 258.788 C 208.679 258.788 201.577 258.788 193.795 258.788 C 193.795 244.675 193.795 230.6 193.795 216.032 Z" transform="matrix(1, 0, 0, 1, 3.552713678800501e-14, 0)"/>
  <path fill="#545352" opacity="1.000000" stroke="none" d="M 298.097 233.99 C 298.109 225.508 298.119 217.526 298.144 209.544 C 298.145 209.229 298.284 208.914 298.454 208.193 C 300.039 208.193 301.718 208.193 303.639 208.193 C 303.639 225.016 303.639 241.741 303.639 258.796 C 301.906 258.883 300.314 258.963 298.097 259.074 C 298.097 250.686 298.097 242.588 298.097 233.99 Z" transform="matrix(1, 0, 0, 1, 3.552713678800501e-14, 0)"/>
  <path fill="#E10F21" opacity="1.000000" stroke="none" d="M 217.497 186.576 C 216.42 181.503 215.477 176.83 214.505 172.012 C 221.841 174.586 227.204 183.272 227.906 193.667 C 225.177 193.667 222.456 193.667 219.13 193.667 C 218.679 191.651 218.156 189.314 217.497 186.576 Z" transform="matrix(1, 0, 0, 1, 3.552713678800501e-14, 0)"/>
  <path fill="#E9E9E9" opacity="1.000000" stroke="none" d="M 135.422 289.523 C 135.378 289.451 135.561 289.429 135.561 289.429 C 135.561 289.429 135.466 289.594 135.422 289.523 Z" transform="matrix(1, 0, 0, 1, 3.552713678800501e-14, 0)"/>
  <path fill="#E9E9E9" opacity="1.000000" stroke="none" d="M 214.03 289.956 C 214.184 290.113 214.303 290.303 214.422 290.492 C 214.309 290.449 214.195 290.406 214.006 290.21 C 213.931 290.058 213.995 289.988 214.03 289.956 Z" transform="matrix(1, 0, 0, 1, 3.552713678800501e-14, 0)"/>
  <path fill="#454442" opacity="1.000000" stroke="none" d="M 355.038 343.027 C 355.062 342.817 355.039 342.584 355.067 342.357 C 355.072 342.32 355.305 342.312 355.432 342.291 C 355.456 342.497 355.479 342.704 355.228 342.935 C 354.953 342.961 355.008 343.007 355.038 343.027 Z" transform="matrix(1, 0, 0, 1, 3.552713678800501e-14, 0)"/>
  <path fill="#E9E9E9" opacity="1.000000" stroke="none" d="M 131.069 227.362 C 131.605 225.079 132.072 223.224 132.54 221.37 C 132.869 221.351 133.197 221.332 133.526 221.313 C 134.111 224.053 134.696 226.792 135.28 229.532 C 134.871 229.906 134.461 230.28 134.051 230.655 C 133.034 229.7 132.017 228.745 131.069 227.362 Z" transform="matrix(1, 0, 0, 1, 3.552713678800501e-14, 0)"/>
  <path fill="#F7F7F7" opacity="1.000000" stroke="none" d="M 270.918 230.442 C 269.567 229.409 268.019 228.424 267.95 227.344 C 267.666 222.885 267.831 218.397 267.831 213.319 C 272.203 213.461 277.298 211.324 279.799 215.677 C 281.518 218.669 281.519 223.361 280.694 226.924 C 279.618 231.569 274.924 230.255 270.918 230.442 Z" transform="matrix(1, 0, 0, 1, 3.552713678800501e-14, 0)"/>
  <text style="fill: rgb(51, 51, 51); font-family: Arial, sans-serif; font-size: 16px; white-space: pre;" x="124.542" y="289.481" transform="matrix(1, 0, 0, 1, 3.552713678800501e-14, 0)">Cooperativa Financiera</text>
</svg>